<svg id="visual" viewBox="0 0 1920 1080" width="1920" height="1080" xmlns="http://www.w3.org/2000/svg" xmlns:xlink="http://www.w3.org/1999/xlink" version="1.1"><path d="M0 174L64 174C128 174 256 174 384 177.5C512 181 640 188 768 184.3C896 180.7 1024 166.3 1152 157.3C1280 148.3 1408 144.7 1536 153.7C1664 162.7 1792 184.3 1856 195.2L1920 206L1920 0L1856 0C1792 0 1664 0 1536 0C1408 0 1280 0 1152 0C1024 0 896 0 768 0C640 0 512 0 384 0C256 0 128 0 64 0L0 0Z" fill="#394b54"></path><path d="M0 411L64 420C128 429 256 447 384 463.3C512 479.7 640 494.3 768 487.2C896 480 1024 451 1152 440.2C1280 429.3 1408 436.7 1536 451.2C1664 465.7 1792 487.3 1856 498.2L1920 509L1920 204L1856 193.2C1792 182.3 1664 160.7 1536 151.7C1408 142.7 1280 146.3 1152 155.3C1024 164.3 896 178.7 768 182.3C640 186 512 179 384 175.5C256 172 128 172 64 172L0 172Z" fill="#2d3c44"></path><path d="M0 498L64 512.3C128 526.7 256 555.3 384 573.3C512 591.3 640 598.7 768 586.2C896 573.7 1024 541.3 1152 534.2C1280 527 1408 545 1536 564.7C1664 584.3 1792 605.7 1856 616.3L1920 627L1920 507L1856 496.2C1792 485.3 1664 463.7 1536 449.2C1408 434.7 1280 427.3 1152 438.2C1024 449 896 478 768 485.2C640 492.3 512 477.7 384 461.3C256 445 128 427 64 418L0 409Z" fill="#212d34"></path><path d="M0 606L64 622.2C128 638.3 256 670.7 384 688.7C512 706.7 640 710.3 768 699.5C896 688.7 1024 663.3 1152 652.5C1280 641.7 1408 645.3 1536 658C1664 670.7 1792 692.3 1856 703.2L1920 714L1920 625L1856 614.3C1792 603.7 1664 582.3 1536 562.7C1408 543 1280 525 1152 532.2C1024 539.3 896 571.7 768 584.2C640 596.7 512 589.3 384 571.3C256 553.3 128 524.7 64 510.3L0 496Z" fill="#1a242a"></path><path d="M0 930L64 935.3C128 940.7 256 951.3 384 956.7C512 962 640 962 768 960.2C896 958.3 1024 954.7 1152 951.2C1280 947.7 1408 944.3 1536 942.7C1664 941 1792 941 1856 941L1920 941L1920 712L1856 701.2C1792 690.3 1664 668.7 1536 656C1408 643.3 1280 639.7 1152 650.5C1024 661.3 896 686.7 768 697.5C640 708.3 512 704.7 384 686.7C256 668.7 128 636.3 64 620.2L0 604Z" fill="#182126"></path><path d="M0 1081L64 1081C128 1081 256 1081 384 1081C512 1081 640 1081 768 1081C896 1081 1024 1081 1152 1081C1280 1081 1408 1081 1536 1081C1664 1081 1792 1081 1856 1081L1920 1081L1920 939L1856 939C1792 939 1664 939 1536 940.7C1408 942.3 1280 945.7 1152 949.2C1024 952.7 896 956.3 768 958.2C640 960 512 960 384 954.7C256 949.3 128 938.7 64 933.3L0 928Z" fill="#161d22"></path></svg>